<?xml version="1.0" encoding="UTF-8"?>
<svg width="122px" height="29px" viewBox="0 0 122 29" version="1.1" xmlns="http://www.w3.org/2000/svg" xmlns:xlink="http://www.w3.org/1999/xlink">
    <!-- Generator: Sketch 55.2 (78181) - https://sketchapp.com -->
    <title>Tindecats</title>
    <desc>Created with Sketch.</desc>
    <defs>
        <path d="M0,22.3292757 C0,21.8648019 0.0760105048,21.2842097 0.228031514,20.7810297 C1.17816282,17.5684193 5.01669332,9.71107102 8.36115553,4.44703471 C7.79107675,4.52444701 7.25900321,4.60185931 6.72692968,4.60185931 C4.25658827,4.60185931 2.62236242,3.71161787 2.20430464,2.20207805 C2.09028888,1.69889811 2.3943309,1.46666121 2.92640444,1.46666121 C6.2328614,1.46666121 12.3137018,0.421595178 14.5180064,0.421595178 C16.266248,0.421595178 17.8624686,0.88606897 18.4325474,2.51172724 C18.6225737,2.97620103 18.4705527,3.44067483 17.5964319,3.36326253 C15.962206,3.16973178 13.7579014,3.51808712 11.7056177,3.86644247 C11.743623,5.25986384 10.6414707,7.5048205 9.00724482,10.4077817 C7.0309717,14.0461597 4.29459352,19.1940776 2.09028888,24.2645832 C1.78624686,24.9612939 1.33018383,25 0.798110301,24.4581139 C0.228031514,23.9162278 0,23.2969294 0,22.3292757 Z M13.6438856,7.23387746 C13.6438856,6.15010528 14.4419959,5.1437454 15.3161167,5.1437454 C16.3802638,5.1437454 17.4064056,6.53716677 17.4064056,7.6596451 C17.4064056,8.70471113 16.8363268,9.59495257 15.8861955,9.59495257 C14.6700274,9.59495257 13.6438856,8.43376809 13.6438856,7.23387746 Z M16.4562743,20.8197359 C15.3161167,23.2582233 12.6937543,24.8838816 10.4514444,24.8838816 C8.13312402,24.8838816 7.1069822,23.5291663 7.1069822,21.5938589 C7.1069822,20.858442 7.25900321,20.0456129 7.56304523,19.039253 C8.51317654,16.3298226 10.9455127,11.8399092 12.351707,9.82718946 C12.9217858,9.05306648 13.3778489,8.97565418 13.8719171,9.55624642 C14.5940169,10.3303694 14.8980589,11.9947338 13.9099224,13.9300413 C13.1878226,15.5944057 11.439581,18.4973669 10.7934917,20.0456129 C10.4514444,20.9358543 10.2614182,21.7486835 10.2614182,22.3679818 C10.2614182,22.9872802 10.4134392,23.3356356 10.8314969,23.3356356 C12.351707,23.3356356 14.3279802,20.7423236 15.506143,18.1103054 C15.810185,17.4135947 16.3042533,17.491007 16.6463006,18.1877177 C16.9883478,18.8457223 16.9503426,19.813376 16.4562743,20.8197359 Z M21.7009991,9.24659722 C22.0430464,9.82718946 22.1950674,10.4464879 22.1950674,11.0657862 C22.1950674,11.3367293 22.1950674,11.6076723 22.1570622,11.8399092 C23.791288,10.2916633 25.6155401,9.01436033 26.9837292,9.01436033 C28.0858815,9.01436033 29.1120234,10.3690756 29.1120234,11.8399092 C29.1120234,12.6914445 28.4279288,13.9300413 27.2117607,16.0975857 C25.9955927,18.0715993 24.7034141,20.6262051 24.7034141,22.0583327 C24.7034141,22.8711618 24.9694508,23.3743417 25.4635191,23.3743417 C26.7556977,23.3743417 28.7319708,20.858442 30.1001599,18.26513 C30.4802124,17.5297132 31.012286,17.5684193 31.3543332,18.1103054 C31.6583753,18.5747792 31.6963805,19.7746698 31.164307,20.8197359 C30.1001599,22.9485741 27.3257765,25 25.0454613,25 C22.4991094,25 21.3969571,23.6839909 21.3969571,21.6712712 C21.3969571,19.5811391 23.1451987,16.0201734 24.6274036,13.6203921 C25.4255139,12.3430892 26.0335979,11.3367293 25.7675611,11.3367293 C25.4255139,11.3367293 23.5632565,12.4205015 21.4729676,14.8202827 C19.3826787,17.0652394 17.6724424,20.858442 16.114227,24.3419955 C15.8481903,24.9612939 15.354122,25.1935307 14.7460379,24.5742324 C14.2139644,24.0323463 13.9099224,23.3743417 13.9099224,22.4453941 C13.9099224,21.8648019 14.0239381,21.2067974 14.2519697,20.4326744 C14.9740695,18.26513 17.9004739,12.8462691 20.2567995,9.24659722 C20.7508678,8.51118039 21.3209466,8.54988654 21.7009991,9.24659722 Z M48.0386391,6.61457907 C45.8343344,10.8722555 42.603888,16.2911164 40.8176411,20.1230252 C40.3615781,21.1293851 40.1335466,21.9809204 40.1335466,22.6002187 C40.1335466,23.180811 40.2855676,23.451754 40.6276148,23.451754 C41.9577987,23.451754 43.820056,20.8971482 45.1122346,18.3425423 C45.4922871,17.6071255 45.9863554,17.6458316 46.3284027,18.3425423 C46.518429,18.6908977 46.67045,19.7746698 46.1763817,20.858442 C45.1502399,22.9485741 42.7939142,24.9612939 40.5896096,24.9612939 C38.7273522,24.9612939 37.4731789,24.3032893 37.1691369,22.6002187 C35.990974,23.8388155 34.5087692,24.8451754 32.8365381,24.8451754 C30.6322334,24.8451754 29.4160654,23.180811 29.4160654,20.8971482 C29.4160654,19.2714899 30.1001599,17.1426517 31.4303437,15.1686381 C34.3947534,10.7948432 37.5491894,8.97565418 39.5254625,8.97565418 C40.8176411,8.97565418 41.6537566,9.51754027 41.9577987,10.5239002 C43.8580613,6.88552212 46.3284027,2.51172724 47.582576,0.692538223 C48.2666706,-0.27511551 48.7987441,-0.197703211 49.1787966,0.731244372 C49.3688229,1.19571816 49.5208439,1.69889811 49.5208439,2.2407842 C49.5208439,3.28585023 49.0267756,4.79539005 48.0386391,6.61457907 Z M38.1192682,17.6071255 C40.1715518,13.6203921 40.8556463,11.3754354 40.1335466,11.3367293 C39.0693995,11.2980231 36.5610528,13.6590982 34.5467744,16.9104148 C33.4066169,18.7296038 32.7985328,20.6649113 32.7985328,21.9422142 C32.7985328,22.6389249 32.9505538,23.1421048 33.3686116,23.1421048 C34.5847797,23.1421048 36.4090318,20.9745605 38.1192682,17.6071255 Z M49.5968544,15.9427611 C49.4068281,16.2911164 49.3308176,16.445941 49.2548071,16.6394717 C49.5588492,16.7942963 49.8248859,16.8717086 50.0909227,16.8717086 C51.0790592,16.8717086 52.1052011,15.7492303 52.8653061,14.7041643 C53.9294532,13.3107429 54.803574,11.4141416 54.4235215,11.1044924 C53.7394269,10.5626063 51.1550698,12.807563 49.5968544,15.9427611 Z M70.8037853,18.2264239 C70.9938115,18.6521915 71.1078273,19.7359637 70.613759,20.8197359 C69.6636277,23.2195171 66.851239,24.8838816 64.6089291,24.8838816 C62.2145982,24.8838816 60.8844144,23.180811 60.8844144,20.8971482 C60.8844144,20.2778498 60.9984301,19.5811391 61.2644669,18.76831 C61.9105562,16.6781779 63.392761,14.5493397 64.9129711,12.7301507 C63.8868293,13.1946245 62.936698,13.3494491 62.1005824,13.3881552 C58.9841518,20.0069067 54.9175897,24.729057 50.2809489,24.8064693 C46.7844657,24.8451754 44.8461979,22.5228064 44.8461979,19.4650206 C44.8461979,18.1103054 45.2262504,16.5620594 45.9863554,15.0138135 C47.9626285,11.0657862 51.0790592,8.89824188 53.2453586,8.89824188 C53.7394269,8.89824188 54.1574847,8.97565418 54.5375372,9.20789107 C55.563679,9.86589561 56.2857788,10.4464879 56.8938629,11.2206108 C57.0838891,11.5689662 57.2359101,12.03344 57.2359101,12.4979138 C57.2359101,13.6203921 56.6658314,15.2073442 55.6396895,16.5620594 C54.5375372,17.9554808 53.0933376,18.9231346 51.4211065,18.9231346 C50.5089805,18.9231346 49.5968544,18.6908977 48.7227336,18.0715993 C48.4947021,18.8457223 48.3806863,19.6585514 48.3806863,20.3552621 C48.3806863,22.1357449 49.0647809,23.2969294 50.1289279,23.2969294 C53.9294532,23.2969294 57.8819994,17.7232439 59.8962778,13.0010937 C59.2121833,12.5753261 58.8321307,11.9947338 58.8321307,11.2980231 C58.8321307,9.24659722 61.3784827,6.42104832 62.6706612,6.38234217 C63.4687715,6.38234217 63.7728136,6.88552212 63.7728136,7.7370574 C63.7728136,8.54988654 63.4687715,9.71107102 63.0507138,10.9883739 C64.1148608,10.7174309 65.1029974,10.1755448 66.3571707,9.36271567 C66.9652548,8.97565418 67.4973283,8.70471113 67.9533913,9.32400952 C68.4474596,9.98201406 69.0935489,11.0270801 69.0935489,11.9947338 C69.0935489,12.4592076 68.9035226,12.9623876 68.4474596,13.4655675 C66.8132337,15.400875 64.9509764,18.0328931 64.2668818,20.0069067 C64.1148608,20.5100867 64.0008451,21.2067974 64.0008451,21.6712712 C64.0008451,22.677631 64.3048871,23.3356356 64.8369606,23.3356356 C66.2051497,23.3356356 68.3714491,20.9745605 69.5116067,18.26513 C69.8536539,17.5297132 70.4237327,17.3748886 70.8037853,18.2264239 Z M77.4927097,8.97565418 C78.898904,8.97565418 80.4951246,10.2916633 81.1032087,11.4528477 C81.6732874,12.7301507 81.0652034,14.1622782 80.3431036,15.671818 C80.0390616,16.2524103 79.8110301,16.8330025 79.6590091,17.2587701 C79.3929723,17.994187 79.050925,18.0715993 78.29082,17.6845378 C77.6067254,17.2587701 76.9606361,16.5233533 76.9606361,15.4782873 C76.9606361,14.9751073 77.1506624,14.2009843 77.8347569,12.6140322 C78.2148095,11.8399092 78.4808462,11.1431985 78.3288252,10.9883739 C77.8727622,10.6013125 75.4024208,13.1172122 73.8822107,16.2524103 C73.1221056,17.8393624 72.7420531,19.4263145 72.7420531,20.587499 C72.7420531,22.2905695 73.4261477,23.3356356 74.4522895,23.3743417 C77.3026834,23.4130479 79.9250458,20.4326744 81.4452559,18.1103054 C81.7873032,17.5297132 82.357382,17.3748886 82.5854135,18.0328931 C82.7754398,18.5360731 82.7754398,19.5424329 82.0913452,20.6262051 C80.6471456,22.9485741 77.5687202,24.8451754 74.6043105,24.8838816 C71.1078273,24.9225877 69.1695594,22.6389249 69.1695594,19.5424329 C69.1695594,18.1490116 69.5496119,16.6007656 70.3477222,15.0525196 C72.2859901,11.0657862 75.288405,8.97565418 77.4927097,8.97565418 Z M83.0034713,15.1299319 C86.0438915,10.6787247 89.1603222,8.85953573 91.09859,8.85953573 C92.4667791,8.85953573 93.3028947,9.55624642 93.644942,10.5626063 L94.3670418,9.36271567 C94.8231048,8.58859269 95.4691941,8.54988654 95.9252571,9.09177263 C96.5713464,9.86589561 96.9133937,11.5689662 95.9252571,13.5816859 C94.9371205,15.7105242 91.7446793,19.9294944 91.7446793,22.5228064 C91.7446793,23.1033987 91.8967003,23.451754 92.2767529,23.451754 C93.644942,23.451754 95.5452046,20.8197359 96.7993779,18.3038362 C97.2174357,17.5297132 97.559483,17.491007 97.9395355,18.3038362 C98.0915565,18.6521915 98.319588,19.6972575 97.7875145,20.8197359 C96.7993779,22.9485741 94.3670418,25 92.0487214,25 C90.1484587,25 89.0463064,23.9936401 88.7422644,22.5615126 C87.6401121,23.6452848 85.9298757,24.8451754 84.4096656,24.8451754 C82.1673557,24.8451754 80.9511876,23.180811 80.9511876,20.8971482 C80.9511876,19.2327838 81.6352822,17.0652394 83.0034713,15.1299319 Z M84.9037339,23.1421048 C86.1579072,23.1421048 87.9061488,20.7810297 89.7684062,17.5297132 C91.2506111,14.897695 91.9347056,13.0010937 91.9347056,11.9947338 C91.9347056,11.53026 91.8586951,11.259317 91.4786426,11.259317 C90.7185375,11.259317 88.0961751,13.6978044 86.1579072,16.8717086 C85.0177497,18.6908977 84.3716604,20.7423236 84.3716604,21.9809204 C84.3716604,22.677631 84.5236814,23.1421048 84.9037339,23.1421048 Z M96.3813201,20.5487928 C96.3813201,19.6972575 96.6093516,18.6134854 97.1414252,17.3361824 C97.9015302,15.4395811 99.3457298,12.3817953 100.86594,9.59495257 C99.6877771,9.44012797 99.0036825,9.01436033 98.6996405,8.54988654 C98.167567,7.7370574 98.5476195,7.34999591 99.4217403,7.38870206 C100.295861,7.42740821 101.322003,7.38870206 102.158118,7.31128976 C103.336281,5.22115769 104.134392,3.94385477 105.008512,2.66655184 C105.578591,1.81501655 106.034654,1.8537227 106.452712,2.58913954 C106.718749,3.05361333 106.87077,3.71161787 106.87077,4.17609166 C106.87077,4.87280235 106.718749,5.76304378 106.262686,6.84681597 C107.440849,7.00164056 108.086938,7.62093895 108.352975,8.08541274 C108.733027,8.78212343 108.46699,9.24659722 107.554864,9.13047878 C106.87077,9.05306648 105.882633,9.13047878 105.046518,9.24659722 C103.602318,11.7624969 101.436019,15.5944057 100.105835,18.5360731 C99.6497718,19.5811391 99.4217403,20.587499 99.4217403,21.4390343 C99.4217403,22.6002187 99.8017928,23.4130479 100.447882,23.4130479 C101.930087,23.4130479 103.90636,20.9745605 105.236544,18.0715993 C105.654602,17.1426517 106.528723,17.0652394 106.794759,18.1103054 C106.984786,18.9231346 106.832765,19.5037268 106.414707,20.3939682 C105.882633,21.5551527 103.336281,24.8838816 100.14384,24.8838816 C98.1295617,24.8838816 96.3813201,23.2195171 96.3813201,20.5487928 Z M109.227095,23.1033987 C110.025206,23.1033987 110.367253,21.1680912 110.367253,18.6521915 C110.367253,17.4135947 110.329248,16.174998 110.253237,15.1299319 C109.341111,16.6007656 108.276964,18.26513 107.136807,19.9294944 C107.59287,21.7486835 108.39098,23.1033987 109.227095,23.1033987 Z M104.020376,19.3876083 C104.020376,18.2264239 104.400428,17.1039455 105.236544,16.3685287 C105.996649,15.7105242 106.566728,15.9040549 106.680744,16.8330025 C107.934917,15.0138135 109.265101,13.0010937 110.253237,11.3367293 C110.405258,9.94330791 110.861321,9.05306648 111.735442,8.31764964 C112.343526,7.77576355 113.027621,7.5048205 113.597699,7.5048205 C114.623841,7.5048205 114.851873,8.35635579 113.67371,10.3303694 C113.635705,10.7948432 113.597699,11.4528477 113.597699,11.9560277 C113.597699,14.7041643 114.091768,17.220064 114.015757,19.310196 C113.977752,20.2778498 113.787726,21.361622 113.369668,22.2131572 C114.927883,21.1293851 115.99203,19.8520821 116.676125,17.9554808 C117.018172,17.0652394 117.588251,17.3361824 117.854288,17.9554808 C118.044314,18.3425423 118.15833,19.4263145 117.474235,20.6262051 C116.030036,23.3356356 113.369668,24.8064693 110.519274,24.9225877 C108.238959,25 105.958644,24.3807016 104.666465,21.9422142 C104.248407,21.2067974 104.020376,20.2778498 104.020376,19.3876083 Z" id="path-1"></path>
        <filter x="-2.1%" y="-10.0%" width="105.9%" height="128.0%" filterUnits="objectBoundingBox" id="filter-2">
            <feOffset dx="1" dy="1" in="SourceAlpha" result="shadowOffsetOuter1"></feOffset>
            <feGaussianBlur stdDeviation="1" in="shadowOffsetOuter1" result="shadowBlurOuter1"></feGaussianBlur>
            <feColorMatrix values="0 0 0 0 0.533333333   0 0 0 0 0.0392156863   0 0 0 0 0.498039216  0 0 0 1 0" type="matrix" in="shadowBlurOuter1"></feColorMatrix>
        </filter>
    </defs>
    <g id="Page-1" stroke="none" stroke-width="1" fill="none" fill-rule="evenodd">
        <g id="LANDING" transform="translate(-61.000000, -22.000000)" fill-rule="nonzero">
            <g id="Tindecats" transform="translate(62.000000, 23.000000)">
                <g>
                    <use fill="black" fill-opacity="1" filter="url(#filter-2)" xlink:href="#path-1"></use>
                    <use fill="#FFFFFF" xlink:href="#path-1"></use>
                </g>
            </g>
        </g>
    </g>
</svg>