<?xml version="1.0" encoding="UTF-8"?>
<svg width="352px" height="79px" viewBox="0 0 352 79" version="1.1" xmlns="http://www.w3.org/2000/svg" xmlns:xlink="http://www.w3.org/1999/xlink">
    <!-- Generator: Sketch 55.2 (78181) - https://sketchapp.com -->
    <title>Tindecats</title>
    <desc>Created with Sketch.</desc>
    <defs>
        <path d="M0.656,65.288 C0.656,63.944 0.88,62.264 1.328,60.808 C4.128,51.512 15.44,28.776 25.296,13.544 C23.616,13.768 22.048,13.992 20.48,13.992 C13.2,13.992 8.384,11.416 7.152,7.048 C6.816,5.592 7.712,4.92 9.28,4.92 C19.024,4.92 36.944,1.896 43.44,1.896 C48.592,1.896 53.296,3.24 54.976,7.944 C55.536,9.288 55.088,10.632 52.512,10.408 C47.696,9.848 41.2,10.856 35.152,11.864 C35.264,15.896 32.016,22.392 27.2,30.792 C21.376,41.32 13.312,56.216 6.816,70.888 C5.92,72.904 4.576,73.016 3.008,71.448 C1.328,69.88 0.656,68.088 0.656,65.288 Z M40.864,21.608 C40.864,18.472 43.216,15.56 45.792,15.56 C48.928,15.56 51.952,19.592 51.952,22.84 C51.952,25.864 50.272,28.44 47.472,28.44 C43.888,28.44 40.864,25.08 40.864,21.608 Z M49.152,60.92 C45.792,67.976 38.064,72.68 31.456,72.68 C24.624,72.68 21.6,68.76 21.6,63.16 C21.6,61.032 22.048,58.68 22.944,55.768 C25.744,47.928 32.912,34.936 37.056,29.112 C38.736,26.872 40.08,26.648 41.536,28.328 C43.664,30.568 44.56,35.384 41.648,40.984 C39.52,45.8 34.368,54.2 32.464,58.68 C31.456,61.256 30.896,63.608 30.896,65.4 C30.896,67.192 31.344,68.2 32.576,68.2 C37.056,68.2 42.88,60.696 46.352,53.08 C47.248,51.064 48.704,51.288 49.712,53.304 C50.72,55.208 50.608,58.008 49.152,60.92 Z M64.608,27.432 C65.616,29.112 66.064,30.904 66.064,32.696 C66.064,33.48 66.064,34.264 65.952,34.936 C70.768,30.456 76.144,26.76 80.176,26.76 C83.424,26.76 86.448,30.68 86.448,34.936 C86.448,37.4 84.432,40.984 80.848,47.256 C77.264,52.968 73.456,60.36 73.456,64.504 C73.456,66.856 74.24,68.312 75.696,68.312 C79.504,68.312 85.328,61.032 89.36,53.528 C90.48,51.4 92.048,51.512 93.056,53.08 C93.952,54.424 94.064,57.896 92.496,60.92 C89.36,67.08 81.184,73.016 74.464,73.016 C66.96,73.016 63.712,69.208 63.712,63.384 C63.712,57.336 68.864,47.032 73.232,40.088 C75.584,36.392 77.376,33.48 76.592,33.48 C75.584,33.48 70.096,36.616 63.936,43.56 C57.776,50.056 52.736,61.032 48.144,71.112 C47.36,72.904 45.904,73.576 44.112,71.784 C42.544,70.216 41.648,68.312 41.648,65.624 C41.648,63.944 41.984,62.04 42.656,59.8 C44.784,53.528 53.408,37.848 60.352,27.432 C61.808,25.304 63.488,25.416 64.608,27.432 Z M142.224,19.816 C135.728,32.136 126.208,47.816 120.944,58.904 C119.6,61.816 118.928,64.28 118.928,66.072 C118.928,67.752 119.376,68.536 120.384,68.536 C124.304,68.536 129.792,61.144 133.6,53.752 C134.72,51.624 136.176,51.736 137.184,53.752 C137.744,54.76 138.192,57.896 136.736,61.032 C133.712,67.08 126.768,72.904 120.272,72.904 C114.784,72.904 111.088,71 110.192,66.072 C106.72,69.656 102.352,72.568 97.424,72.568 C90.928,72.568 87.344,67.752 87.344,61.144 C87.344,56.44 89.36,50.28 93.28,44.568 C102.016,31.912 111.312,26.648 117.136,26.648 C120.944,26.648 123.408,28.216 124.304,31.128 C129.904,20.6 137.184,7.944 140.88,2.68 C142.896,-0.12 144.464,0.104 145.584,2.792 C146.144,4.136 146.592,5.592 146.592,7.16 C146.592,10.184 145.136,14.552 142.224,19.816 Z M112.992,51.624 C119.04,40.088 121.056,33.592 118.928,33.48 C115.792,33.368 108.4,40.2 102.464,49.608 C99.104,54.872 97.312,60.472 97.312,64.168 C97.312,66.184 97.76,67.64 98.992,67.64 C102.576,67.64 107.952,61.368 112.992,51.624 Z M146.816,46.808 C146.256,47.816 146.032,48.264 145.808,48.824 C146.704,49.272 147.488,49.496 148.272,49.496 C151.184,49.496 154.208,46.248 156.448,43.224 C159.584,39.192 162.16,33.704 161.04,32.808 C159.024,31.24 151.408,37.736 146.816,46.808 Z M209.312,53.416 C209.872,54.648 210.208,57.784 208.752,60.92 C205.952,67.864 197.664,72.68 191.056,72.68 C184,72.68 180.08,67.752 180.08,61.144 C180.08,59.352 180.416,57.336 181.2,54.984 C183.104,48.936 187.472,42.776 191.952,37.512 C188.928,38.856 186.128,39.304 183.664,39.416 C174.48,58.568 162.496,72.232 148.832,72.456 C138.528,72.568 132.816,65.848 132.816,57 C132.816,53.08 133.936,48.6 136.176,44.12 C142,32.696 151.184,26.424 157.568,26.424 C159.024,26.424 160.256,26.648 161.376,27.32 C164.4,29.224 166.528,30.904 168.32,33.144 C168.88,34.152 169.328,35.496 169.328,36.84 C169.328,40.088 167.648,44.68 164.624,48.6 C161.376,52.632 157.12,55.432 152.192,55.432 C149.504,55.432 146.816,54.76 144.24,52.968 C143.568,55.208 143.232,57.56 143.232,59.576 C143.232,64.728 145.248,68.088 148.384,68.088 C159.584,68.088 171.232,51.96 177.168,38.296 C175.152,37.064 174.032,35.384 174.032,33.368 C174.032,27.432 181.536,19.256 185.344,19.144 C187.696,19.144 188.592,20.6 188.592,23.064 C188.592,25.416 187.696,28.776 186.464,32.472 C189.6,31.688 192.512,30.12 196.208,27.768 C198,26.648 199.568,25.864 200.912,27.656 C202.368,29.56 204.272,32.584 204.272,35.384 C204.272,36.728 203.712,38.184 202.368,39.64 C197.552,45.24 192.064,52.856 190.048,58.568 C189.6,60.024 189.264,62.04 189.264,63.384 C189.264,66.296 190.16,68.2 191.728,68.2 C195.76,68.2 202.144,61.368 205.504,53.528 C206.512,51.4 208.192,50.952 209.312,53.416 Z M229.024,26.648 C233.168,26.648 237.872,30.456 239.664,33.816 C241.344,37.512 239.552,41.656 237.424,46.024 C236.528,47.704 235.856,49.384 235.408,50.616 C234.624,52.744 233.616,52.968 231.376,51.848 C229.36,50.616 227.456,48.488 227.456,45.464 C227.456,44.008 228.016,41.768 230.032,37.176 C231.152,34.936 231.936,32.92 231.488,32.472 C230.144,31.352 222.864,38.632 218.384,47.704 C216.144,52.296 215.024,56.888 215.024,60.248 C215.024,65.176 217.04,68.2 220.064,68.312 C228.464,68.424 236.192,59.8 240.672,53.08 C241.68,51.4 243.36,50.952 244.032,52.856 C244.592,54.312 244.592,57.224 242.576,60.36 C238.32,67.08 229.248,72.568 220.512,72.68 C210.208,72.792 204.496,66.184 204.496,57.224 C204.496,53.192 205.616,48.712 207.968,44.232 C213.68,32.696 222.528,26.648 229.024,26.648 Z M245.264,44.456 C254.224,31.576 263.408,26.312 269.12,26.312 C273.152,26.312 275.616,28.328 276.624,31.24 L278.752,27.768 C280.096,25.528 282,25.416 283.344,26.984 C285.248,29.224 286.256,34.152 283.344,39.976 C280.432,46.136 271.024,58.344 271.024,65.848 C271.024,67.528 271.472,68.536 272.592,68.536 C276.624,68.536 282.224,60.92 285.92,53.64 C287.152,51.4 288.16,51.288 289.28,53.64 C289.728,54.648 290.4,57.672 288.832,60.92 C285.92,67.08 278.752,73.016 271.92,73.016 C266.32,73.016 263.072,70.104 262.176,65.96 C258.928,69.096 253.888,72.568 249.408,72.568 C242.8,72.568 239.216,67.752 239.216,61.144 C239.216,56.328 241.232,50.056 245.264,44.456 Z M250.864,67.64 C254.56,67.64 259.712,60.808 265.2,51.4 C269.568,43.784 271.584,38.296 271.584,35.384 C271.584,34.04 271.36,33.256 270.24,33.256 C268,33.256 260.272,40.312 254.56,49.496 C251.2,54.76 249.296,60.696 249.296,64.28 C249.296,66.296 249.744,67.64 250.864,67.64 Z M284.688,60.136 C284.688,57.672 285.36,54.536 286.928,50.84 C289.168,45.352 293.424,36.504 297.904,28.44 C294.432,27.992 292.416,26.76 291.52,25.416 C289.952,23.064 291.072,21.944 293.648,22.056 C296.224,22.168 299.248,22.056 301.712,21.832 C305.184,15.784 307.536,12.088 310.112,8.392 C311.792,5.928 313.136,6.04 314.368,8.168 C315.152,9.512 315.6,11.416 315.6,12.76 C315.6,14.776 315.152,17.352 313.808,20.488 C317.28,20.936 319.184,22.728 319.968,24.072 C321.088,26.088 320.304,27.432 317.616,27.096 C315.6,26.872 312.688,27.096 310.224,27.432 C305.968,34.712 299.584,45.8 295.664,54.312 C294.32,57.336 293.648,60.248 293.648,62.712 C293.648,66.072 294.768,68.424 296.672,68.424 C301.04,68.424 306.864,61.368 310.784,52.968 C312.016,50.28 314.592,50.056 315.376,53.08 C315.936,55.432 315.488,57.112 314.256,59.688 C312.688,63.048 305.184,72.68 295.776,72.68 C289.84,72.68 284.688,67.864 284.688,60.136 Z M322.544,67.528 C324.896,67.528 325.904,61.928 325.904,54.648 C325.904,51.064 325.792,47.48 325.568,44.456 C322.88,48.712 319.744,53.528 316.384,58.344 C317.728,63.608 320.08,67.528 322.544,67.528 Z M307.2,56.776 C307.2,53.416 308.32,50.168 310.784,48.04 C313.024,46.136 314.704,46.696 315.04,49.384 C318.736,44.12 322.656,38.296 325.568,33.48 C326.016,29.448 327.36,26.872 329.936,24.744 C331.728,23.176 333.744,22.392 335.424,22.392 C338.448,22.392 339.12,24.856 335.648,30.568 C335.536,31.912 335.424,33.816 335.424,35.272 C335.424,43.224 336.88,50.504 336.656,56.552 C336.544,59.352 335.984,62.488 334.752,64.952 C339.344,61.816 342.48,58.12 344.496,52.632 C345.504,50.056 347.184,50.84 347.968,52.632 C348.528,53.752 348.864,56.888 346.848,60.36 C342.592,68.2 334.752,72.456 326.352,72.792 C319.632,73.016 312.912,71.224 309.104,64.168 C307.872,62.04 307.2,59.352 307.2,56.776 Z" id="path-1"></path>
        <filter x="-0.9%" y="-4.1%" width="102.9%" height="116.6%" filterUnits="objectBoundingBox" id="filter-2">
            <feOffset dx="2" dy="4" in="SourceAlpha" result="shadowOffsetOuter1"></feOffset>
            <feGaussianBlur stdDeviation="1" in="shadowOffsetOuter1" result="shadowBlurOuter1"></feGaussianBlur>
            <feColorMatrix values="0 0 0 0 0.982349694   0 0 0 0 0.094335936   0 0 0 0 0.920256078  0 0 0 1 0" type="matrix" in="shadowBlurOuter1"></feColorMatrix>
        </filter>
    </defs>
    <g id="Page-1" stroke="none" stroke-width="1" fill="none" fill-rule="evenodd">
        <g id="Tindecats" fill-rule="nonzero">
            <use fill="black" fill-opacity="1" filter="url(#filter-2)" xlink:href="#path-1"></use>
            <use fill="#FFFFFF" xlink:href="#path-1"></use>
        </g>
    </g>
</svg>